<?xml version="1.0" encoding="UTF-8"?>
<!DOCTYPE svg PUBLIC "-//W3C//DTD SVG 1.1//EN" "http://www.w3.org/Graphics/SVG/1.1/DTD/svg11.dtd">
<!-- Creator: CorelDRAW -->
<svg xmlns="http://www.w3.org/2000/svg" xml:space="preserve" width="78.54mm" height="78.54mm" style="shape-rendering:geometricPrecision; text-rendering:geometricPrecision; image-rendering:optimizeQuality; fill-rule:evenodd; clip-rule:evenodd"
viewBox="0 0 32.4758 32.4758"
 xmlns:xlink="http://www.w3.org/1999/xlink">
 <defs>
  <style type="text/css">
   <!-- <![CDATA[ -->
    .fil0 {fill:black}
    .fil1 {fill:white;fill-rule:nonzero}
   <!-- ]]> -->
  </style>
 </defs>
 <g id="Layer_x0020_1">
  <metadata id="CorelCorpID_0Corel-Layer"/>
  <g id="_884865416">
   <path id="_884866208" class="fil0" d="M16.2379 0c8.96798,0 16.2379,7.26992 16.2379,16.2379 0,8.96798 -7.26992,16.2379 -16.2379,16.2379 -8.96798,0 -16.2379,-7.26992 -16.2379,-16.2379 0,-8.96798 7.26992,-16.2379 16.2379,-16.2379z"/>
   <path id="_884866352" class="fil1" d="M15.1883 9.44213c-0.745405,0.128348 -2.18941,0.249916 -2.2406,0.363213 -0.0511905,0.113297 0.994866,1.0853 1.54188,1.57248 -0.043789,0.787706 -0.460177,2.21099 -0.299039,2.34707 0.161139,0.136081 1.13488,-0.563096 1.69648,-0.851839 0.151711,-0.0934082 0.341339,-0.180945 0.513477,-0.0831949 0.652038,0.274229 1.7533,1.04382 1.91675,0.910265 0.163454,-0.133558 -0.344275,-1.52728 -0.334062,-2.31209 0.278736,-0.216216 1.85258,-1.47659 1.49375,-1.61771 -0.410393,-0.161428 -1.47915,-0.198353 -2.21289,-0.332573 -0.282954,-0.650591 -0.727129,-1.91898 -0.924613,-1.92862 -0.197485,-0.0096344 -0.987919,1.59046 -1.15113,1.933z"/>
   <path id="_884866568" class="fil1" d="M21.9879 15.0544c-0.745405,0.128348 -2.18941,0.249916 -2.2406,0.363213 -0.0511905,0.113297 0.994866,1.0853 1.54188,1.57248 -0.043789,0.787706 -0.460177,2.21099 -0.299039,2.34707 0.161139,0.136081 1.13488,-0.563096 1.69648,-0.851839 0.151711,-0.0934082 0.341339,-0.180945 0.513477,-0.0831949 0.652038,0.274229 1.7533,1.04382 1.91675,0.910265 0.163454,-0.133558 -0.344275,-1.52728 -0.334062,-2.31209 0.278736,-0.216216 1.85258,-1.47659 1.49375,-1.61771 -0.410393,-0.161428 -1.47915,-0.198353 -2.21289,-0.332573 -0.282954,-0.650591 -0.727129,-1.91898 -0.924613,-1.92862 -0.197485,-0.0096344 -0.987919,1.59046 -1.15113,1.933z"/>
   <path id="_884866496" class="fil1" d="M15.1883 20.3307c-0.745405,0.128348 -2.18941,0.249916 -2.2406,0.363213 -0.0511905,0.113297 0.994866,1.0853 1.54188,1.57248 -0.043789,0.787706 -0.460177,2.21099 -0.299039,2.34707 0.161139,0.136081 1.13488,-0.563096 1.69648,-0.851839 0.151711,-0.0934082 0.341339,-0.180945 0.513477,-0.0831949 0.652038,0.274229 1.7533,1.04382 1.91675,0.910265 0.163454,-0.133558 -0.344275,-1.52728 -0.334062,-2.31209 0.278736,-0.216216 1.85258,-1.47659 1.49375,-1.61771 -0.410393,-0.161428 -1.47915,-0.198353 -2.21289,-0.332573 -0.282954,-0.650591 -0.727129,-1.91898 -0.924613,-1.92862 -0.197485,-0.0096344 -0.987919,1.59046 -1.15113,1.933z"/>
   <path id="_884865968" class="fil1" d="M8.08372 15.0544c-0.745405,0.128348 -2.18941,0.249916 -2.2406,0.363213 -0.0511905,0.113297 0.994866,1.0853 1.54188,1.57248 -0.043789,0.787706 -0.460177,2.21099 -0.299039,2.34707 0.161139,0.136081 1.13488,-0.563096 1.69648,-0.851839 0.151711,-0.0934082 0.341339,-0.180945 0.513477,-0.0831949 0.652038,0.274229 1.7533,1.04382 1.91675,0.910265 0.163454,-0.133558 -0.344275,-1.52728 -0.334062,-2.31209 0.278736,-0.216216 1.85258,-1.47659 1.49375,-1.61771 -0.410393,-0.161428 -1.47915,-0.198353 -2.21289,-0.332573 -0.282954,-0.650591 -0.727129,-1.91898 -0.924613,-1.92862 -0.197485,-0.0096344 -0.987919,1.59046 -1.15113,1.933z"/>
  </g>
 </g>
</svg>
