<?xml version="1.0" encoding="UTF-8"?>
<!DOCTYPE svg PUBLIC "-//W3C//DTD SVG 1.1//EN" "http://www.w3.org/Graphics/SVG/1.1/DTD/svg11.dtd">
<!-- Creator: CorelDRAW -->
<svg xmlns="http://www.w3.org/2000/svg" xml:space="preserve" width="60.0001mm" height="70.4981mm" style="shape-rendering:geometricPrecision; text-rendering:geometricPrecision; image-rendering:optimizeQuality; fill-rule:evenodd; clip-rule:evenodd"
viewBox="0 0 21.1706 24.8747"
 xmlns:xlink="http://www.w3.org/1999/xlink">
 <defs>
  <style type="text/css">
   <!-- <![CDATA[
    .fil0 {fill:black;fill-rule:nonzero}
   ]]> -->
  </style>
 </defs>
 <g id="Layer_x0020_1">
  <metadata id="CorelCorpID_0Corel-Layer"/>
  <path class="fil0" d="M7.35857 0.143572c0.0270983,-0.0498214 0.0467164,-0.109769 0.096326,-0.142443 0.0585013,-0.00867993 0.106664,0.0359899 0.148229,0.0711331 0.136409,0.129811 0.239157,0.290001 0.337141,0.449557 0.390244,0.657134 0.631271,1.39034 0.809456,2.13015 0.2309,0.969435 0.372284,1.96597 0.349949,2.96416 -0.0138314,0.465929 -0.0650995,0.93475 -0.202355,1.38166 -0.100066,0.320593 -0.24826,0.633741 -0.480183,0.880554 0,0.144066 -0.0185948,0.28732 -0.0452697,0.428704 0.245367,-0.0198298 0.492356,-0.0225114 0.737935,-0.0051515 0.146147,0.0124201 0.294765,0.0285097 0.432867,0.0816478 0.0452697,0.0196533 0.0971376,0.0421647 0.119472,0.0895162 0.0140431,0.0363781 -0.0270983,0.0634411 -0.0570546,0.0715212 -0.0622414,0.00970317 -0.124236,-0.03165 -0.154827,-0.0839412 -0.028545,-0.0694394 -0.115133,-0.0684162 -0.177162,-0.0830944 -0.301786,-0.0396948 -0.607912,-0.0349314 -0.911357,-0.0157015 -0.0599479,0.251365 -0.153592,0.494862 -0.285273,0.71747 0.386962,0.0644996 0.773113,0.144489 1.14413,0.272853 0.0936444,0.037613 0.197204,0.0684162 0.268725,0.143466 0.0456931,0.043823 -0.0183831,0.105641 -0.0686279,0.0876461 -0.0913509,-0.00557491 -0.107688,-0.117214 -0.187889,-0.143042 -0.199285,-0.093221 -0.415472,-0.143466 -0.628201,-0.196604 -0.18623,-0.0421647 -0.372884,-0.0845058 -0.562043,-0.111181 -0.0896926,0.149852 -0.199038,0.28732 -0.315829,0.41713 0.330119,0.101689 0.650712,0.231923 0.9682,0.367521 0.172399,0.0770961 0.344798,0.157509 0.501283,0.264173 0.0454814,0.0351431 0.101301,0.0698628 0.117814,0.128788 -0.0026816,0.0520796 -0.0717329,0.0700745 -0.112028,0.048163 -0.0729678,-0.0293565 -0.0847528,-0.120319 -0.148829,-0.160191 -0.264808,-0.191205 -0.575874,-0.300763 -0.874767,-0.425634 -0.162484,-0.0644996 -0.326626,-0.125259 -0.493027,-0.178785 -0.157297,0.163719 -0.330508,0.311489 -0.515715,0.442535 0.129176,0.0624531 0.211247,0.189582 0.261456,0.319393 0.0897279,0.240991 0.0911745,0.511798 0.01055,0.755506 0.176951,0.200697 0.352666,0.405134 0.559785,0.575663 0.0950911,0.0841529 0.224902,0.100666 0.341269,0.138914 0.810091,0.226984 1.61355,0.487417 2.37816,0.841529 0.523795,0.23771 1.01763,0.53618 1.48748,0.867111 0.581061,0.408062 1.134,0.859701 1.62576,1.37295 0.388409,0.396913 0.706497,0.858043 0.963648,1.34941 0.303868,0.576086 0.529581,1.18919 0.735253,1.80599 0.0969611,0.295611 0.203837,0.588083 0.28672,0.888034 0.259622,0.923777 0.363181,1.89445 0.274512,2.85111 -0.0425881,0.44257 -0.120531,0.884294 -0.26502,1.30576 0.546765,-0.312548 1.05362,-0.705085 1.46246,-1.18629 0.262938,-0.313571 0.480395,-0.674706 0.578591,-1.07508 0.0793543,-0.323733 0.111216,-0.656922 0.131046,-0.988912 0.0262515,-0.495885 0.0173599,-0.993852 -0.0258281,-1.4885 -0.0334848,-0.365051 -0.0827063,-0.731337 -0.191205,-1.08252 -0.28425,-0.967388 -0.591399,-1.93086 -0.780311,-2.92284 -0.0851762,-0.451427 -0.148653,-0.908675 -0.151546,-1.36861 -0.00455167,-0.370202 0.0522913,-0.738147 0.129211,-1.09928 0.122789,-0.551493 0.315018,-1.09988 0.655264,-1.55713 0.396666,-0.539285 0.952922,-0.973563 1.59721,-1.17098 0.26749,-0.0793896 0.549835,-0.123213 0.828898,-0.0961143 0.327861,0.0510563 0.633564,0.221797 0.864041,0.458484 0.154016,0.161425 0.279663,0.384246 0.234005,0.614511 -0.0221232,0.138702 -0.123424,0.260892 -0.259445,0.300551 -0.232523,0.072368 -0.476232,0.0113968 -0.712107,-0.00638645 -0.0880342,-0.0082918 -0.171975,0.0248048 -0.254223,0.0499978 -0.334459,0.110404 -0.627354,0.328073 -0.847104,0.601138 -0.407604,0.511586 -0.610418,1.17161 -0.608971,1.82233 -0.00328144,0.611017 0.0824946,1.21812 0.181714,1.81986 0.143042,0.862771 0.346244,1.71379 0.510351,2.57268 0.162907,0.911569 0.280722,1.83369 0.299528,2.76057 0.00621003,0.446699 -0.0140431,0.897949 -0.123213,1.33325 -0.19057,0.79686 -0.571534,1.55258 -1.12571,2.15866 -0.230053,0.254858 -0.495497,0.47916 -0.792731,0.651524 -0.53371,0.311101 -1.1346,0.50213 -1.7471,0.575063 -0.117391,0.00518679 -0.23397,0.0283333 -0.351608,0.0177833 -0.313359,-0.038848 -0.614722,-0.14343 -0.927905,-0.182914 -0.454355,-0.00808009 -0.90744,0.0374013 -1.36035,0.0630177 -0.923565,0.0535615 -1.84879,0.140784 -2.7744,0.0882812 -0.504388,-0.0103383 -1.00874,-0.0328496 -1.51002,-0.0926212 -0.337529,-0.0454814 -0.682115,-0.0973493 -0.99237,-0.245155 -0.0502448,0.124448 -0.179244,0.183972 -0.29353,0.23711 -0.25447,0.107688 -0.527958,0.162872 -0.8012,0.196357 -0.201967,0.0248048 -0.406616,-0.00162308 -0.601738,-0.0557844 -0.148617,-0.0423764 -0.28732,-0.128999 -0.380329,-0.253623 -0.202779,0.0206413 -0.406616,0.0278746 -0.609994,0.0392714 -0.218092,-0.0161249 -0.442359,-0.0155251 -0.649689,-0.0949146 -0.291236,-0.130199 -0.473585,-0.489251 -0.361946,-0.797036 0.051268,-0.133939 0.133516,-0.286296 0.285661,-0.31957 0.175292,-0.0456931 0.363604,-0.0421647 0.539108,-0.00105853 0.0804128,0.0122084 0.146747,0.0845411 0.2315,0.0647113 0.160826,-0.0324615 0.323909,-0.0762846 0.462824,-0.166612 0.107476,-0.0808009 0.135386,-0.222608 0.164319,-0.346033 0.0700745,-0.385092 0.0721563,-0.778653 0.0655229,-1.16851 -0.0179597,-0.734018 -0.0742028,-1.46638 -0.149217,-2.19648 -0.0432232,-0.446663 -0.124448,-0.888846 -0.223879,-1.32602 -0.0756494,-0.314206 -0.150699,-0.631694 -0.283791,-0.92727 -0.178185,-0.352454 -0.414872,-0.670366 -0.627777,-1.00172 -0.352454,-0.548811 -0.622802,-1.15383 -0.763798,-1.79195 -0.0756494,-0.338799 -0.115944,-0.68522 -0.128964,-1.0321 -0.0465399,0.0299916 -0.0779429,0.0783663 -0.126741,0.105429 -0.0233582,-0.0448463 -0.0417413,-0.0930093 -0.0427645,-0.144066 -0.00723327,-0.144489 0.0136197,-0.293106 0.0766727,-0.424187 -0.174057,-0.00391655 -0.360076,-0.0446346 -0.492568,-0.16453 0.240392,-0.241415 0.457425,-0.506223 0.649654,-0.787333 0.0211,-0.0299916 0.0393067,-0.0616063 0.055608,-0.0942795 -0.123812,0.139549 -0.265796,0.261492 -0.414625,0.373519 -0.215834,0.161461 -0.374366,0.397301 -0.623049,0.514092 -0.143642,0.0640762 -0.316253,0.0967494 -0.465893,0.0332731 -0.19431,-0.0768844 -0.345009,-0.25507 -0.384069,-0.460742 -0.0392714,-0.21601 0.00455167,-0.439889 0.0913509,-0.639139 0.0483747,-0.113686 0.106876,-0.238557 0.0653464,-0.363816 -0.0560314,-0.172399 -0.168906,-0.326591 -0.181926,-0.512222 -0.013408,-0.21661 0.00723327,-0.444829 0.111216,-0.639139 0.0175716,-0.0396948 0.0539496,-0.0638645 0.0896926,-0.0853526 -0.226313,-0.169717 -0.43943,-0.358453 -0.622167,-0.575063 -0.244308,0.110581 -0.485547,0.23524 -0.696405,0.402876 -0.058713,0.052503 -0.134962,0.107476 -0.133727,0.19491 -0.00723327,0.0696511 -0.0882812,0.158744 -0.161037,0.118873 -0.0508446,-0.0473515 -0.00557491,-0.121131 0.034755,-0.158956 0.258351,-0.266255 0.587659,-0.453756 0.92914,-0.592423 -0.128364,-0.157932 -0.236475,-0.33199 -0.318335,-0.51822l-0.0103383 -0.00599832c-0.222432,0.0171481 -0.44504,0.0669695 -0.649266,0.15832 -0.0651347,0.0415649 -0.0998544,0.168059 -0.194946,0.136444 -0.0717329,-0.0430115 -0.00536321,-0.118661 0.0475632,-0.140149 0.242862,-0.125047 0.51822,-0.175292 0.788391,-0.197415 -0.0585013,-0.149641 -0.0895162,-0.308596 -0.100878,-0.46861 -0.21601,-0.0822476 -0.445252,-0.129176 -0.676152,-0.141172 -0.0764963,-0.00825652 -0.147171,0.0467164 -0.223879,0.0268866 -0.0384246,-0.00850351 -0.0462929,-0.0514797 -0.0591011,-0.0820712 0.0599479,-0.0378247 0.133939,-0.0264632 0.20112,-0.0245931 0.258387,0.0212764 0.513668,0.0805892 0.756353,0.17134 -0.0119966,-0.370414 0.0485511,-0.740017 0.147382,-1.09614 -0.114109,-0.125894 -0.168059,-0.291483 -0.21167,-0.452485 -0.0876461,-0.344586 -0.117814,-0.700534 -0.137467,-1.05465 -0.0368015,-0.77823 0.00289331,-1.55794 0.0777312,-2.33268 0.0715212,-0.760482 0.15398,-1.52015 0.261703,-2.27626 0.0386363,-0.257363 0.0758259,-0.515538 0.134962,-0.769161 0.0150664,-0.0533498 0.024205,-0.112028 0.0634411,-0.154016 0.0887046,0.0423764 0.158567,0.112663 0.227795,0.180479 0.171799,0.173422 0.330119,0.359652 0.486182,0.547329 0.603608,0.736524 1.16523,1.50734 1.68549,2.30459 0.271406,0.422705 0.535791,0.852044 0.745168,1.3095 0.244979,-0.0124201 0.490945,-0.00910334 0.735289,0.0128082 -0.00352843,-0.243497 0.0760729,-0.47789 0.147594,-0.707767 0.204613,-0.606254 0.468998,-1.19127 0.765633,-1.75761 0.26562,-0.498602 0.588506,-0.963048 0.904547,-1.43021 0.146747,-0.215199 0.258175,-0.451462 0.367309,-0.687302zm-1.54513 5.96018c-0.281956,0.064923 -0.521713,0.250553 -0.701133,0.472139 -0.240427,0.303233 -0.383258,0.69637 -0.340669,1.08563 0.0235699,0.305103 0.149252,0.608971 0.375601,0.819371 0.222608,0.21414 0.535968,0.318335 0.842129,0.312971 0.354713,-0.000423411 0.714153,-0.138103 0.95765,-0.400194 0.163507,-0.176527 0.275746,-0.407851 0.285485,-0.650501 0.0159132,-0.301786 -0.0227583,-0.610418 -0.140361,-0.890292 -0.0984078,-0.234817 -0.255917,-0.448957 -0.46861,-0.591823 -0.233793,-0.159167 -0.53371,-0.220138 -0.810091,-0.157297zm-3.97085 0.205284c-0.0731795,0.0276981 -0.151722,0.0648877 -0.191205,0.136409 -0.285873,0.477925 -0.47542,1.01389 -0.549835,1.56602 -0.0132316,0.0673929 0.00680986,0.134362 0.0235699,0.199074 0.045058,0.165765 0.128788,0.324721 0.257152,0.440877 0.118238,0.107299 0.272853,0.171376 0.431385,0.186054 0.179844,0.0289331 0.361134,-0.0330613 0.514092,-0.124659 0.20546,-0.123812 0.373943,-0.328849 0.406792,-0.571746 0.0264632,-0.218268 0.000635117,-0.439254 -0.0380364,-0.654417 -0.0518679,-0.269783 -0.130834,-0.53685 -0.26128,-0.7795 -0.0754377,-0.136832 -0.169717,-0.270595 -0.30468,-0.354113 -0.0847528,-0.0526794 -0.191417,-0.076461 -0.287955,-0.0439995zm6.74095 14.2461c0.00310501,0.346244 0.00187007,0.692489 -0.00889163,1.0387 -0.00991488,0.243109 -0.0161249,0.487628 -0.0568429,0.72802 0.140749,-0.096326 0.280086,-0.200273 0.444829,-0.252177 0.0799894,-0.0349314 0.176951,-0.0378247 0.243285,-0.0987959 -0.0529264,-0.155639 -0.149041,-0.291448 -0.222397,-0.437595 -0.169506,-0.310078 -0.302845,-0.638751 -0.399982,-0.97815zm-2.42798 -13.4139c0.104794,0.0151017 0.172575,0.108111 0.21601,0.196604 0.0810127,0.176739 0.0880342,0.384669 0.0303797,0.569241 -0.0233582,0.0572663 -0.0535615,0.135421 -0.123812,0.143254 -0.101301,-0.0229348 -0.146783,-0.131469 -0.175292,-0.220738 -0.049398,-0.184607 -0.0551846,-0.382411 -0.0153134,-0.569488 0.0266043,0.0104089 0.0937503,0.0137609 0.108817,-0.0163719 0.00857407,-0.0369426 -0.0180655,-0.0739558 -0.0407886,-0.102501zm-3.77863 0.0907511c0.0781193,0.0233582 0.0950911,0.114321 0.120496,0.180867 0.0562431,0.201755 0.0975963,0.415684 0.0624531,0.624672 -0.00786839,0.0616063 -0.0502448,0.146959 -0.125894,0.125047 -0.111428,-0.0514444 -0.175504,-0.177127 -0.189335,-0.294976 -0.00889163,-0.168659 0.0225114,-0.336929 0.0661227,-0.498955 0.0411414,-0.00105853 0.0814713,0.00846822 0.120531,0.0202532 -0.00557491,-0.0268513 -0.0158779,-0.0411414 -0.0154898,-0.061324 -0.00920919,-0.0365898 -0.0324262,-0.0662285 -0.0388832,-0.095585z"/>
 </g>
</svg>
