<?xml version="1.0" encoding="UTF-8"?>
<!DOCTYPE svg PUBLIC "-//W3C//DTD SVG 1.1//EN" "http://www.w3.org/Graphics/SVG/1.1/DTD/svg11.dtd">
<!-- Creator: CorelDRAW -->
<svg xmlns="http://www.w3.org/2000/svg" xml:space="preserve" width="57.8129mm" height="65.2492mm" style="shape-rendering:geometricPrecision; text-rendering:geometricPrecision; image-rendering:optimizeQuality; fill-rule:evenodd; clip-rule:evenodd"
viewBox="0 0 79.2292 89.4202"
 xmlns:xlink="http://www.w3.org/1999/xlink">
 <defs>
  <style type="text/css">
   <!-- <![CDATA[
    .fil0 {fill:black;fill-rule:nonzero}
   ]]> -->
  </style>
 </defs>
 <g id="Layer_x0020_1">
  <metadata id="CorelCorpID_0Corel-Layer"/>
  <path class="fil0" d="M0.947386 0.38715c0.80486,-0.56983 1.9056,-0.452383 2.74527,-0.0238457 6.37475,3.24548 12.3264,7.25676 18.0398,11.5454 2.76487,2.07951 5.47094,4.23521 8.14536,6.42915 0.38619,0.314242 0.765803,0.685221 1.2715,0.788415 0.416614,0.101276 0.833228,-0.0423466 1.24326,-0.108676 4.85301,-0.881057 9.85841,-0.79513 14.7116,0.0423466 0.549273,0.103331 1.17789,0.118543 1.64892,-0.227219 6.37036,-5.12079 12.8451,-10.1446 19.7681,-14.5039 2.14803,-1.33783 4.34293,-2.60713 6.62814,-3.69581 0.837477,-0.437308 1.81638,-0.78307 2.75938,-0.495963 0.724278,0.181584 1.32905,0.83967 1.32042,1.60753 0.00534472,4.42132 -0.0881194,8.84264 -0.319861,13.2585 -0.233797,4.28866 -0.597101,8.57609 -1.26711,12.8213 -0.367552,2.27754 -0.822265,4.54411 -1.46939,6.7597 -0.534061,1.78925 -1.17789,3.56096 -2.13186,5.17287 -0.256684,0.46225 -0.697144,0.900654 -0.612313,1.47487 0.488425,2.51133 0.813631,5.05542 1.01043,7.60705 0.690703,-0.111006 1.34002,-0.374131 2.00016,-0.596005 0.189258,-0.0761966 0.392769,-0.0783893 0.593949,-0.0544065 -0.040291,0.12937 -0.0489248,0.292589 -0.191451,0.356726 -0.745109,0.456768 -1.5608,0.781015 -2.33414,1.18667 0.0370019,1.01372 0.0957939,2.02633 0.0946975,3.04101 1.15501,-0.287108 2.10993,-1.12349 3.29221,-1.33988 0.180624,-0.0338499 0.447038,-0.0250791 0.397017,0.233797 -0.232701,0.280529 -0.576408,0.426344 -0.885305,0.601487 -0.936423,0.506789 -1.94589,0.89298 -2.80612,1.53243 -0.040291,5.3698 -0.853785,10.7798 -2.80721,15.8004 -1.44664,3.72198 -3.55342,7.21003 -6.32253,10.0999 -2.85189,2.99866 -6.39434,5.3132 -10.2382,6.82946 -4.72145,1.85983 -9.78989,2.77021 -14.8552,2.88231 -6.32788,0.111965 -12.7374,-1.00947 -18.4966,-3.68717 -3.32702,-1.57286 -6.45738,-3.66538 -8.9187,-6.42367 -2.81489,-3.08569 -4.90536,-6.79794 -6.22468,-10.7526 -1.56395,-4.65512 -2.11761,-9.59515 -2.09582,-14.4886 0.0282311,-0.169661 -0.159931,-0.245857 -0.261069,-0.338225 -1.05497,-0.733049 -2.29275,-1.14309 -3.36745,-1.84146 -0.109772,-0.0848303 -0.305608,-0.242568 -0.191314,-0.392632 0.210911,-0.124984 0.465402,-0.0282311 0.685221,0.02179 1.09855,0.340418 2.05128,1.03002 3.14982,1.37044 0.0271347,-1.01152 0.0815413,-2.02195 0.140196,-3.03128 -0.835284,-0.445942 -1.7184,-0.800475 -2.53299,-1.28451 -0.159931,-0.0641367 -0.161027,-0.245857 -0.204607,-0.385094 0.416614,-0.0445394 0.799516,0.145815 1.18338,0.274088 0.528716,0.195836 1.07566,0.355767 1.63919,0.406884 0.202277,-2.52449 0.548177,-5.03692 0.97781,-7.53318 0.0738668,-0.357822 0.00863378,-0.740587 -0.206663,-1.03866 -1.08005,-1.58039 -1.74581,-3.39678 -2.30371,-5.21522 -0.921211,-3.09665 -1.48021,-6.28772 -1.92725,-9.48441 -1.02139,-7.61034 -1.34769,-15.2967 -1.4217,-22.969 -0.00424837,-0.824458 0.245857,-1.73265 0.947386,-2.233zm1.39223 3.01388c-0.618891,0.367689 -0.708107,1.18009 -0.663431,1.83173 0.410036,8.93281 1.16378,17.9169 3.43145,26.5941 0.578737,2.11336 1.19859,4.22548 2.0362,6.25291 1.58135,-3.36087 3.61851,-6.52262 6.14081,-9.25596 2.4853,-2.70388 5.45888,-4.9488 8.72958,-6.61718 -5.91798,-6.12793 -11.2997,-12.8006 -17.8038,-18.339 -0.50583,-0.406747 -1.22901,-0.799379 -1.87079,-0.466635zm72.3148 0.641778c-1.99262,1.29534 -3.71335,2.95193 -5.39694,4.61482 -4.23645,4.29414 -8.12261,8.91664 -11.9718,13.5565 3.23465,1.68482 6.12231,3.99826 8.56841,6.69666 2.44076,2.69196 4.49313,5.72324 6.20837,8.92308 0.0315202,-0.00534472 0.0936012,-0.0152119 0.125121,-0.0194603 3.735,-10.7341 5.2022,-22.1381 5.38159,-33.4649 0.00328906,-0.436075 -0.173909,-0.981099 -0.661238,-1.07237 -0.834188,-0.161027 -1.57601,0.360015 -2.25355,0.765666zm-41.6235 26.4636c-0.37742,1.53037 -0.191451,3.1945 0.528579,4.59756 0.74182,1.47912 2.05566,2.65605 3.59796,3.24987 1.77075,0.694951 3.83189,0.60039 5.53192,-0.254491 1.73909,-0.858171 3.07801,-2.49831 3.53807,-4.38541 0.421959,-1.6544 0.17295,-3.46639 -0.683028,-4.94346 -0.680835,-1.17241 -1.71305,-2.1579 -2.95303,-2.718 0.31109,0.75155 0.611354,1.5205 0.686317,2.33852 0.170757,1.43239 -0.350148,2.91589 -1.34002,3.95797 -0.694951,0.738531 -1.7554,1.10499 -2.75719,0.945057 -1.49433,-0.218585 -2.77665,-1.41937 -3.09871,-2.89424 -0.352341,-1.4661 0.087023,-2.95947 0.565581,-4.34183 -1.78911,0.840766 -3.15421,2.52655 -3.61646,4.44845zm-14.6778 9.14496c-2.01537,0.716741 -3.70992,2.10788 -5.15766,3.65127 -0.89298,0.96808 -1.7173,2.00454 -2.4472,3.10199 -2.20682,3.73391 -2.48091,8.36408 -1.42046,12.5058 0.489522,1.88819 1.24751,3.72952 2.39279,5.31759 1.08882,1.5205 2.65934,2.65386 4.38007,3.35977 2.54505,1.03427 5.42517,1.20941 8.08341,0.523098 1.74676,-0.45252 3.41089,-1.32042 4.67142,-2.62782 -2.24931,0.353574 -4.55836,0.585179 -6.81959,0.199125 -1.82173,-0.293686 -3.60988,-1.06154 -4.92263,-2.38416 -1.12897,-1.11376 -1.87189,-2.5582 -2.34935,-4.05692 -0.80486,-2.40375 -0.983292,-5.02829 -0.404691,-7.50262 0.490618,-2.16228 1.51955,-4.1745 2.84421,-5.94196 1.04962,-1.41498 2.50709,-2.52984 4.17012,-3.12145 2.13063,-0.784167 4.44845,-0.767858 6.67816,-0.552562 -1.29425,-1.14418 -2.82681,-2.04155 -4.47682,-2.56684 -1.69126,-0.531868 -3.55218,-0.508982 -5.22179,0.0956568zm37.8079 -0.25778c-1.84461,0.476503 -3.53697,1.46075 -4.9695,2.70278 1.83379,-0.178294 3.70896,-0.232701 5.51438,0.196932 1.8686,0.414422 3.60782,1.41608 4.86178,2.8682 2.0732,2.48201 3.49572,5.5851 3.65565,8.8414 0.117447,2.19819 -0.327398,4.4094 -1.18667,6.43135 -0.634103,1.4857 -1.64343,2.83873 -2.99318,3.74583 -1.37373,0.950675 -3.02689,1.41841 -4.67362,1.58916 -1.97837,0.208855 -3.96565,-0.0131562 -5.92332,-0.304512 0.561196,0.636159 1.26492,1.13103 1.99358,1.55737 1.85119,1.0366 3.99278,1.50324 6.10724,1.46624 2.72019,-0.0500211 5.47957,-0.929982 7.55703,-2.72348 1.28451,-1.09526 2.18503,-2.56574 2.86916,-4.09173 0.840766,-1.92081 1.34002,-3.9873 1.50324,-6.07558 0.22393,-2.88451 -0.22626,-5.85823 -1.54134,-8.4522 -0.436075,-0.926693 -1.08429,-1.72607 -1.71086,-2.52778 -1.5412,-1.90546 -3.3521,-3.68923 -5.61004,-4.71391 -1.69236,-0.779781 -3.64688,-0.976577 -5.45354,-0.510078zm-32.5991 4.51163c-1.02893,0.15116 -1.98824,0.661238 -2.74088,1.37263 -1.07676,1.00823 -1.76527,2.38525 -2.0643,3.81983 -0.429633,2.05676 -0.0936012,4.294 1.04085,6.07667 0.733049,1.15295 1.84461,2.10568 3.17476,2.47981 1.19215,0.346996 2.51695,0.18501 3.597,-0.427441 1.17351,-0.643833 2.06539,-1.72388 2.62124,-2.92795 0.848303,-1.8501 0.96575,-4.01443 0.36536,-5.95594 -0.453479,-1.45746 -1.34317,-2.81914 -2.63097,-3.66758 -0.976714,-0.655893 -2.19709,-0.950675 -3.36306,-0.770051zm30.5598 0.103331c-1.97193,0.388246 -3.48695,2.01866 -4.19396,3.83943 -0.87119,2.22203 -0.752647,4.83355 0.383998,6.94142 0.594909,1.09306 1.4846,2.05347 2.61138,2.60809 1.16707,0.59066 2.58534,0.662471 3.80352,0.183913 1.30411,-0.500348 2.34277,-1.54668 3.00963,-2.75623 1.12993,-2.07951 1.27574,-4.65402 0.443749,-6.86413 -0.502541,-1.34975 -1.41183,-2.57561 -2.64961,-3.33141 -1.00714,-0.619988 -2.24821,-0.859267 -3.4087,-0.621084zm-34.2556 14.6974c-1.03551,0.345899 -1.88162,1.40964 -1.75115,2.53093 0.0663294,0.637392 0.627525,1.16488 1.26601,1.20297 1.07895,0.0945605 2.09157,-0.687413 2.47337,-1.66522 0.224067,-0.570926 0.195699,-1.29315 -0.251202,-1.75005 -0.439501,-0.46225 -1.15953,-0.524194 -1.73703,-0.318628zm38.3995 -0.00438541c-0.539406,0.203374 -0.882016,0.775533 -0.862419,1.3444 0.0293274,1.22792 1.11485,2.31783 2.33181,2.39608 0.512408,0.0391946 1.0551,-0.187065 1.33358,-0.628622 0.326302,-0.509119 0.270799,-1.17584 0.024942,-1.70442 -0.47198,-1.02125 -1.70209,-1.80871 -2.82791,-1.40744z"/>
 </g>
</svg>
