<?xml version="1.0" encoding="UTF-8"?>
<!DOCTYPE svg PUBLIC "-//W3C//DTD SVG 1.1//EN" "http://www.w3.org/Graphics/SVG/1.1/DTD/svg11.dtd">
<!-- Creator: CorelDRAW -->
<svg xmlns="http://www.w3.org/2000/svg" xml:space="preserve" width="87.1669mm" height="80.6682mm" style="shape-rendering:geometricPrecision; text-rendering:geometricPrecision; image-rendering:optimizeQuality; fill-rule:evenodd; clip-rule:evenodd"
viewBox="0 0 41.2191 38.146"
 xmlns:xlink="http://www.w3.org/1999/xlink">
 <defs>
  <style type="text/css">
   <!-- <![CDATA[ -->
    .fil0 {fill:#050505;fill-rule:nonzero}
   <!-- ]]> -->
  </style>
 </defs>
 <g id="Layer_x0020_1">
  <metadata id="CorelCorpID_0Corel-Layer"/>
  <path class="fil0" d="M15.6276 0.978379c0.454055,0.381374 1.5717,1.63549 2.12018,2.61992 1.27194,2.25519 1.74292,4.87393 1.82284,7.43653 0.787148,0.0699383 1.67176,0.359811 1.97038,1.17188 0.0849284,-0.114909 0.169904,-0.228635 0.256062,-0.342362 0.0250151,-2.49002 0.353616,-5.02378 1.37063,-7.3177 0.842096,-1.89911 2.22516,-3.6758 4.15549,-4.54665 2.05275,2.50884 3.57707,5.5124 4.02686,8.74465 0.327372,2.24516 0.17747,4.56031 -0.392297,6.75427 0.44351,0.793343 0.757073,1.65043 1.19945,2.44505 0.898274,1.75295 1.8828,3.46963 3.08225,5.03641 1.03328,1.36434 2.19523,2.69742 3.71694,3.53082 0.68094,0.364776 1.51552,0.664626 2.26271,0.301127 -0.319853,0.430979 -0.834578,0.654649 -1.36316,0.672098 -0.722128,0.0512124 -1.43929,-0.0487062 -2.15021,-0.152408 0.248685,0.444787 0.647272,0.795849 0.835854,1.27691 0.246179,0.633416 0.502288,1.30566 0.419913,1.99776 -0.0338106,0.208633 -0.2737,0.527256 -0.466066,0.258663 -0.53974,-0.631005 -0.989539,-1.34561 -1.63057,-1.88408 0.526026,1.05948 0.454906,2.33383 0.0175437,3.4108 -0.613414,1.68046 -2.18275,2.7362 -3.67325,3.57952 0.635923,-0.939509 1.29312,-1.94654 1.36689,-3.11095 -0.432397,0.437268 -0.775941,0.954546 -1.20697,1.39437 -0.0474767,-1.65426 -0.343591,-3.29471 -0.775894,-4.89015 -0.241072,-0.823418 -0.487251,-1.67053 -0.989539,-2.37771 0.2955,-2.7868 -0.780433,-5.25809 -1.27062,-6.46818 -0.479921,-1.18469 -3.16874,-3.98799 -5.72482,-4.71268 -2.98852,-0.959559 -6.39937,-0.885837 -9.21052,0.590952 -1.98783,1.02571 -3.65206,2.69742 -4.60155,4.73022 -0.888344,1.80913 -1.23699,3.86817 -1.06695,5.87217 -0.723499,1.30064 -0.934591,2.80495 -1.18578,4.25176 -0.17364,1.18441 -0.214875,2.38641 -0.154914,3.58203 -0.690918,-0.580975 -1.16687,-1.3606 -1.80534,-1.98404 0.0999185,1.16067 0.727093,2.19145 1.40174,3.11095 -1.23316,-0.640841 -2.41374,-1.47797 -3.21834,-2.62739 -0.799632,-1.27194 -1.15453,-2.98365 -0.43235,-4.36795 -0.576009,0.511036 -1.05078,1.1219 -1.51807,1.73044 -0.0887114,0.111173 -0.186076,0.223623 -0.323541,0.274835 -0.149949,-0.0587784 -0.232418,-0.203667 -0.273653,-0.349786 -0.08124,-0.693424 0.167492,-1.36689 0.413577,-2.00282 0.187448,-0.487251 0.587217,-0.84342 0.845832,-1.28811 -0.788378,0.11245 -1.58801,0.232324 -2.38504,0.128669 -0.418589,-0.0600079 -0.828383,-0.246226 -1.09329,-0.584758 0.481056,0.128717 0.990721,0.151226 1.4618,-0.033716 1.37314,-0.482333 2.48132,-1.50058 3.43218,-2.57126 1.59794,-1.83164 2.90232,-3.90694 3.98553,-6.07834 -0.633464,0.118644 -1.36434,0.154867 -1.91533,-0.226176 0.758397,-0.181159 1.54053,-0.363547 2.18776,-0.820864 0.534633,-0.328554 0.833301,-0.899551 1.24314,-1.35436 0.146166,-0.12744 0.033716,-0.319806 0.00747143,-0.472261 -0.655925,-2.5575 -0.710968,-5.27246 -0.114909,-7.84623 0.637105,-2.74868 1.99643,-5.30122 3.80069,-7.4615 0.642307,0.278571 0.975967,0.496424 1.53926,0.969631zm-1.4356 0.0348982c-0.63597,0.9571 -1.22319,1.9491 -1.68301,3.00361 -1.50677,3.27721 -1.91396,7.04159 -1.15188,10.5662 0.623439,-0.698437 1.26433,-1.38685 1.99402,-1.97657 0.529715,-0.421001 1.20191,-0.604666 1.86663,-0.660891 -0.894538,-0.189954 -1.67923,-0.825877 -2.00532,-1.6867 1.27194,0.832119 2.85371,0.733382 4.30671,0.7383 -0.261074,-2.27013 -0.805874,-4.50901 -1.64173,-6.6368 -0.47472,-1.15561 -0.96703,-2.31756 -1.68542,-3.34715zm9.73035 9.60292c0.702125,-0.137418 1.41683,-0.0749507 2.12151,0.0112544 -0.299708,0.325338 -0.984432,0.167634 -1.34188,0.675975 0.609489,0.0105451 0.937381,0.0872928 1.49674,0.151178 1.62802,0.307274 2.88742,1.48923 3.92444,2.70622 0.289825,-1.48932 0.347327,-3.01609 0.249867,-4.52783 -0.26987,-3.09227 -1.41811,-6.07966 -3.1773,-8.62718 -1.79782,2.90364 -2.81115,6.24082 -3.27338,9.61039zm-11.0572 8.16864c1.96901,-2.11517 4.86262,-3.26842 7.73879,-3.23224 2.77247,0.0350401 5.68978,0.867111 7.65628,2.91111 -1.36179,-0.0737213 -2.71114,0.458547 -3.75818,1.30821 -1.18569,1.13816 -1.43305,2.84732 -1.89538,4.34908 -0.272329,0.868388 -0.445969,1.8454 -1.1219,2.50629 -0.601024,0.537281 -1.58678,0.248685 -1.96782,-0.413482 -1.13443,-1.78534 -1.33436,-3.99442 -2.46132,-5.78478 -0.362364,-0.578421 -0.860869,-1.09693 -1.50677,-1.34935 -0.848386,-0.323636 -1.78544,-0.463512 -2.68371,-0.294838zm14.3057 1.42307c1.1419,-0.336072 2.44756,0.136188 3.10854,1.11575 1.06071,2.42755 1.37805,5.28372 0.437268,7.80249 -0.0800105,0.181206 -0.113727,0.407382 -0.286184,0.529715 -0.349739,0.246179 -0.572179,0.63597 -0.95204,0.845974 -0.998192,0.599606 -2.21646,0.737023 -3.35959,0.648359 -1.59799,-0.128717 -2.9436,-1.13069 -4.5066,-1.3981 -1.69294,-0.322312 -3.39718,0.202438 -4.98888,0.738395 -1.0957,0.348651 -2.18648,0.930855 -3.36966,0.785919 -0.605895,-0.0712623 -1.20441,-0.256109 -1.74288,-0.543476 -0.288643,-0.323636 -0.419819,-0.749649 -0.628451,-1.12327 -1.24815,-2.58251 -0.987033,-5.69351 0.223623,-8.23976 0.598518,-0.638476 1.50928,-0.948351 2.37133,-1.00202 0.783413,-0.0125312 1.72793,0.118644 2.15276,0.870753 1.13816,1.87788 1.30064,4.20807 2.60124,6.00344 0.582251,0.838313 1.58304,1.42553 2.62503,1.3119 1.01578,-0.00633653 1.91032,-0.679711 2.41256,-1.5281 0.689689,-1.20564 0.938326,-2.58748 1.33441,-3.90307 0.20485,-0.728417 0.421048,-1.49684 0.933267,-2.07654 0.471078,-0.396033 1.04449,-0.668457 1.63426,-0.838361zm-15.6213 2.53002c-0.0537659,0.479779 -0.0975069,0.962065 -0.101195,1.44681 -1.0208,1.06331 -1.22815,2.78372 -0.529762,4.07429 0.101243,0.0775043 0.564755,1.61931 2.6987,1.76047 0.884561,0.0886641 2.00896,-0.520163 2.40883,-0.872124 0.0538132,-0.0473821 0.100912,-0.103229 0.155481,-0.15236 0.0111599,-0.010025 1.3319,0.151131 1.38557,0.0610482 0.0267647,-0.0449232 -0.999233,-0.611617 -0.988735,-0.632092 0.528438,-1.03049 0.633227,-2.50718 0.157373,-3.41709 -0.436086,-0.885885 -1.27312,-1.56924 -2.23769,-1.78662 -0.822141,-0.191231 -1.70788,-0.0213267 -2.41639,0.433485 -0.199837,-0.292332 -0.366053,-0.604713 -0.532174,-0.915818zm0.753385 2.44382c0.514725,-0.52475 1.32433,-0.713427 2.02651,-0.511036 0.658479,0.218705 1.25941,0.734754 1.41063,1.43565 0.222299,0.640935 0.0112071,1.35304 -0.383596,1.88034 -0.785871,1.0407 -2.60077,0.703544 -3.30218,-0.164939 -0.701463,-0.868435 -0.326993,-2.1016 0.248638,-2.64002zm16.8906 -1.56545c-0.965753,-0.575962 -2.22266,-0.648454 -3.20836,-0.0811927 -1.75418,0.898274 -2.33019,3.3996 -1.19576,5.00009 -0.292379,0.261122 -0.603389,0.501011 -0.904516,0.752108 0.450981,-0.0112071 0.895815,-0.0836989 1.33928,-0.162433 0.317441,0.163709 0.569767,0.444834 0.905887,0.583528 1.00079,0.498505 2.26015,0.396033 3.17347,-0.247361 1.15188,-0.759627 1.7154,-2.25897 1.4243,-3.59839 -0.109896,-0.687088 -0.502241,-1.29057 -0.965753,-1.79532 0.00373571,-0.436038 -0.0299803,-0.872124 -0.0874819,-1.3031 -0.164939,0.281077 -0.324818,0.565937 -0.481056,0.852074zm-2.28011 1.07324c0.549718,-0.191136 1.15812,-0.0811927 1.67171,0.164939 0.979467,0.538463 1.35933,1.91907 0.763363,2.87234 -0.513495,0.940785 -1.80913,1.29062 -2.74495,0.788378 -1.06075,-0.502241 -1.45305,-1.99908 -0.797126,-2.96356 0.283583,-0.374801 0.643441,-0.728417 1.107,-0.862099zm2.63997 7.35401c0.624716,-0.869618 1.1707,-1.80922 1.51178,-2.82746 0.291102,1.9778 0.609773,4.00057 1.47807,5.82218 -0.600977,0.517326 -1.23193,1.00826 -1.95033,1.35446 0.0562249,-0.222393 0.11245,-0.444834 0.159974,-0.667227 -0.969584,0.897092 -2.26649,1.29062 -3.51838,1.61298 -4.53535,1.20191 -9.36799,1.00453 -13.8796,-0.211186 -1.04321,-0.301032 -2.10534,-0.663349 -2.93864,-1.38552 0.0662971,0.223575 0.141248,0.447293 0.211186,0.672192 -0.562249,-0.278665 -1.09078,-0.624668 -1.57297,-1.02581 0.44351,-0.77334 0.644624,-1.65298 0.839543,-2.51508 0.227358,-1.12691 0.392345,-2.2664 0.479732,-3.41331 0.84465,1.96659 2.26276,3.63948 3.90694,4.98756 1.528,1.22825 3.28341,2.21897 5.20125,2.67879 1.43059,0.312287 2.92232,0.0349928 4.26169,-0.50976 2.31392,-0.942015 4.32917,-2.56762 5.80975,-4.5728zm-14.8791 0.373524c1.97402,-0.515954 3.85313,-1.53547 5.93842,-1.52304 1.34178,-0.0349455 2.51125,0.707185 3.74692,1.11074 1.51055,0.536004 3.19853,0.527303 4.71655,0.0237856 -1.74292,2.24015 -4.18183,4.04677 -6.9717,4.70152 -1.57926,0.407287 -3.21347,-0.047524 -4.64657,-0.725958 -1.77792,-0.855857 -3.39335,-2.06401 -4.69395,-3.54954 0.633416,0.0987364 1.28433,0.128622 1.91032,-0.037499zm5.61856 -1.10818c-1.40056,0.197378 -2.64124,1.58295 -2.3526,3.03477 0.283583,1.61539 2.14761,2.56762 3.66946,2.139 1.13698,-0.267458 2.14903,-1.28192 2.15522,-2.49134 0.0349455,-0.674651 -0.25488,-1.33937 -0.728417,-1.81163 -0.692148,-0.729647 -1.76293,-1.02822 -2.74367,-0.8708zm-0.0149901 1.35687c0.730876,-0.323636 1.68419,0.0411874 1.97529,0.794525 0.363547,0.768375 -0.071215,1.78165 -0.884608,2.03535 -0.733335,0.276112 -1.6317,-0.126258 -1.90408,-0.860869 -0.323589,-0.737118 0.0662971,-1.6754 0.813393,-1.96901z"/>
 </g>
</svg>
