<?xml version="1.0" encoding="UTF-8"?>
<!DOCTYPE svg PUBLIC "-//W3C//DTD SVG 1.1//EN" "http://www.w3.org/Graphics/SVG/1.1/DTD/svg11.dtd">
<!-- Creator: CorelDRAW -->
<svg xmlns="http://www.w3.org/2000/svg" xml:space="preserve" width="42.0781mm" height="66.4159mm" style="shape-rendering:geometricPrecision; text-rendering:geometricPrecision; image-rendering:optimizeQuality; fill-rule:evenodd; clip-rule:evenodd"
viewBox="0 0 11.7412 18.5323"
 xmlns:xlink="http://www.w3.org/1999/xlink">
 <defs>
  <style type="text/css">
   <!-- <![CDATA[ -->
    .fil0 {fill:black;fill-rule:nonzero}
   <!-- ]]> -->
  </style>
 </defs>
 <g id="Layer_x0020_1">
  <metadata id="CorelCorpID_0Corel-Layer"/>
  <path class="fil0" d="M5.7479 0.000697584c0.109297,-0.00153468 0.218121,-0.000474357 0.326274,0.00323679 0.285284,-0.000809197 0.58664,0.00281824 0.95756,0.0547464 0.370919,0.0519282 0.421397,0.116385 0.702049,0.231737 0.881635,0.288521 1.68955,0.800492 2.34578,1.57383 0.984179,1.15986 1.62573,2.90703 1.66017,5.3688 0.00675261,0.483677 -0.00979408,0.993946 -0.0516212,1.53145 -0.183158,2.35298 -0.539093,4.31073 -1.10048,5.83962 -0.0884257,0.258748 -0.18606,0.514761 -0.294715,0.76737 -0.348457,0.860372 -1.23202,1.96596 -1.57593,2.24139 -0.343909,0.275434 -0.485295,0.324851 -0.743206,0.460684 -1.60101,0.76698 -4.07936,0.617083 -5.31475,-0.792204 -0.342765,-0.356019 -0.639071,-0.788633 -0.898404,-1.29829 -0.101066,-0.198616 -0.19644,-0.40898 -0.286735,-0.631007 -0.904041,-2.02045 -1.44034,-5.86607 -1.47254,-8.17507 -0.0328702,-2.35055 0.544004,-4.04961 1.4712,-5.20286 0.806742,-1.00349 1.87776,-1.59311 3.04297,-1.83897 0.190217,-0.0491378 0.382834,-0.085468 0.578772,-0.0934763 0.215079,-0.0243596 0.433311,-0.0379207 0.653608,-0.04099zm-2.95349 1.00251c-0.880686,0.640271 -1.67749,1.62573 -2.02916,2.4988 -0.507953,1.22652 -0.582734,2.57707 -0.584743,3.88825 0.0210112,0.554551 0.0483565,1.17141 0.0932809,1.82173 0.367543,2.95385 0.808221,5.19156 1.58622,6.72052 0.804398,1.58086 1.97257,2.40298 3.80122,2.47659 1.82904,0.073637 3.18174,-0.744908 4.13882,-2.37167 0.526676,-0.895168 0.934344,-2.0346 1.23623,-3.40432 0.0868632,-0.458452 0.159328,-0.919806 0.218372,-1.38317 0.181121,-1.27672 0.342542,-2.56329 0.317959,-3.85574 0.0156817,-0.99255 -0.0642056,-2.00767 -0.31475,-2.97363 -0.285284,-1.02511 -0.721525,-1.84589 -1.2633,-2.48438 -0.44397,-0.523216 -0.959178,-0.924131 -1.52026,-1.21516 -0.194821,-0.0799989 -0.399353,-0.138847 -0.577209,-0.255483 -0.495368,-0.184106 -1.01727,-0.293292 -1.55073,-0.334812 -0.198811,-0.0154585 -0.398181,-0.0216251 -0.597188,-0.0188627 -0.228277,0.00318098 -0.456332,0.0181372 -0.682879,0.045343 -0.499554,0.0599643 -0.986774,0.179837 -1.44846,0.364864 -0.274039,0.125035 -0.55045,0.282661 -0.823428,0.481138zm-0.811513 3.87887c0.203778,-0.950891 0.615241,-1.93133 1.41947,-2.52391 0.0108265,0.842626 -0.0807244,1.68132 -0.113204,2.52294 -0.436102,-0.00198114 -0.871171,-0.00198114 -1.30627,0.000976618zm6.36986 -2.52096c0.384899,0.184078 0.646716,0.538451 0.84656,0.90365 0.27362,0.505972 0.451783,1.05918 0.568922,1.62225 -0.425219,-0.0137843 -0.850467,-0.0147609 -1.27471,-0.00789665 -0.103382,-0.835706 -0.125035,-1.67735 -0.140772,-2.518zm-5.80775 3.52009c0.329762,-0.0757855 0.695938,-0.119092 0.997127,0.0718791 0.254981,0.118115 0.340616,0.470506 0.187008,0.700849 -0.171243,0.293348 -0.530554,0.365199 -0.833725,0.442966 -0.374072,0.0669402 -0.800324,0.167364 -1.14485,-0.0462638 -0.188989,-0.167336 -0.109242,-0.440008 -0.021653,-0.638847 0.145711,-0.314024 0.480384,-0.49908 0.81609,-0.530582zm5.86286 -0.0561137c0.535521,-0.132876 1.16647,-0.0147609 1.56119,0.38688 0.229366,0.2136 0.208689,0.647693 -0.0688934,0.811095 -0.361265,0.217563 -0.810118,0.205759 -1.20682,0.103382 -0.354373,-0.0728557 -0.720548,-0.335677 -0.746164,-0.723534 -0.031475,-0.283498 0.215581,-0.497098 0.460684,-0.577823zm-6.54113 1.75908c0.507953,0.0954853 1.07397,0.272672 1.52383,-0.0856354 -0.158519,0.266756 -0.333696,0.616218 -0.692031,0.619148 -0.36718,0.0226575 -0.639852,-0.25593 -0.831799,-0.533512zm6.51161 -0.000976618c0.269714,0.0610246 0.535493,0.158463 0.814081,0.164379 0.23916,-0.021653 0.465568,-0.105335 0.698868,-0.157514 -0.217535,0.228389 -0.450835,0.518779 -0.7924,0.531559 -0.318935,-0.0324795 -0.541381,-0.298259 -0.720548,-0.538423zm-6.47419 1.87025c-0.0246108,-0.307104 -0.140772,-0.758943 0.194933,-0.937079 0.352392,-0.116162 0.754981,-0.0974664 1.09459,0.0580669 0.0718791,1.34659 0.109297,2.69421 0.132904,4.04275 -0.276634,-0.124003 -0.41936,-0.412412 -0.57587,-0.655562 -0.426252,-0.777639 -0.674285,-1.64192 -0.84656,-2.50818zm6.61298 -0.792372c0.274653,-0.284503 0.757967,-0.234277 1.11429,-0.140772 0.333696,0.0777667 0.283498,0.480356 0.266756,0.741197 -0.12403,0.908589 -0.472488,1.77186 -0.847509,2.60366 -0.162425,0.29039 -0.29039,0.676238 -0.641805,0.782578 0.104331,-1.32594 0.0413249,-2.65978 0.108265,-3.98666zm-4.5468 5.84813c1.24131,-0.0630337 2.48652,-0.0207043 3.72781,0.0196719 0.0777667,0.172275 -0.120096,0.295329 -0.217535,0.409482 -0.587673,0.500056 -1.42539,0.4863 -2.14789,0.387857 -0.529606,-0.07679 -1.14875,-0.27069 -1.36238,-0.81701zm2.06128 1.69111c0.275629,-0.0561137 0.550254,-0.126988 0.833752,-0.125984 -0.454769,0.561109 -1.35842,0.56895 -1.90574,0.145656l-0.0511748 -0.135806c0.378007,-0.00786875 0.746164,0.109242 1.12317,0.116134z"/>
 </g>
</svg>
