<?xml version="1.0" encoding="UTF-8"?>
<!DOCTYPE svg PUBLIC "-//W3C//DTD SVG 1.1//EN" "http://www.w3.org/Graphics/SVG/1.1/DTD/svg11.dtd">
<!-- Creator: CorelDRAW -->
<svg xmlns="http://www.w3.org/2000/svg" xml:space="preserve" width="69.956mm" height="71.7762mm" style="shape-rendering:geometricPrecision; text-rendering:geometricPrecision; image-rendering:optimizeQuality; fill-rule:evenodd; clip-rule:evenodd"
viewBox="0 0 27.7122 28.4333"
 xmlns:xlink="http://www.w3.org/1999/xlink">
 <defs>
  <style type="text/css">
   <!-- <![CDATA[ -->
    .fil0 {fill:#060606;fill-rule:nonzero}
   <!-- ]]> -->
  </style>
 </defs>
 <g id="Layer_x0020_1">
  <metadata id="CorelCorpID_0Corel-Layer"/>
  <path class="fil0" d="M1.98928 0.396732c0.454053,-0.411151 1.12733,-0.468552 1.70145,-0.327051 0.544491,0.142055 1.07512,0.456945 1.35752,0.958574 0.23079,0.389126 0.25226,0.87796 0.103828,1.30072 -0.0470215,0.165863 -0.144432,0.31081 -0.199535,0.473186 0.456984,0.720257 1.13779,1.25199 1.74031,1.84236 0.597296,-0.56715 1.321,-0.984085 2.07489,-1.30654 1.51063,-0.630928 3.15175,-0.918564 4.78419,-0.948116 1.65387,-0.0377123 3.32165,0.186739 4.88335,0.741688 0.898242,0.331131 1.77276,0.778212 2.47907,1.4341 0.726596,-0.505115 1.18881,-1.27984 1.81625,-1.88934 -0.245883,-0.45231 -0.296905,-1.0235 -0.0643724,-1.49205 0.365318,-0.737054 1.21662,-1.15866 2.02212,-1.13311 0.464471,-0.00118841 0.948116,0.20817 1.20909,0.60308 0.159445,0.230235 0.243545,0.50567 0.266165,0.783441 0.409408,0.0516167 0.826937,0.199495 1.10122,0.523654 0.480158,0.557286 0.543382,1.37436 0.333429,2.05746 -0.167566,0.565407 -0.551463,1.1198 -1.13715,1.30191 -0.495845,0.171052 -1.02413,-0.00233721 -1.46543,-0.240099 -0.663966,0.469146 -1.18473,1.1059 -1.70723,1.71825 0.410597,0.532369 0.78055,1.09659 1.09544,1.69099 1.17257,2.1706 1.76234,4.66416 1.62373,7.13163 -0.125853,2.26278 -0.923793,4.47628 -2.22507,6.3279 0.407665,0.48305 0.852449,0.932468 1.32623,1.35059 0.362426,-0.178618 0.781104,-0.285893 1.18124,-0.176875 0.570636,0.139757 0.990463,0.626294 1.20675,1.15343 0.249963,0.604268 0.295202,1.34592 -0.0579549,1.91948 -0.251706,0.411706 -0.733013,0.62047 -1.20216,0.640792 -0.0156474,0.43896 -0.155999,0.898242 -0.4964,1.19574 -0.474929,0.433771 -1.19051,0.475524 -1.78432,0.300391 -0.639643,-0.182699 -1.26305,-0.633266 -1.44685,-1.29897 -0.15077,-0.520762 0.0614806,-1.05832 0.348522,-1.48979 -0.350265,-0.415786 -0.743431,-0.791562 -1.1366,-1.1656 -0.581649,0.419272 -1.15981,0.847814 -1.789,1.19574 -1.60693,0.935994 -3.41855,1.53095 -5.27536,1.66608 -0.665709,0.0156078 -1.43465,0.0642535 -2.08709,-0.0446447 -2.32715,-0.239505 -4.54469,-1.24795 -6.34062,-2.73363 -0.414083,0.399505 -0.846071,0.78051 -1.23924,1.20093 0.0724932,0.432622 0.11072,0.871622 0.101451,1.31058 -0.00522902,0.390275 -0.220926,0.757375 -0.520168,0.998584 -0.487685,0.400733 -1.16152,0.538153 -1.77565,0.420421 -0.415192,-0.0840604 -0.817073,-0.317782 -1.034,-0.690626 -0.138569,-0.219223 -0.192523,-0.477267 -0.220926,-0.731864 -0.4964,-0.0011488 -0.995098,-0.258044 -1.25144,-0.688883 -0.365318,-0.594404 -0.359534,-1.35697 -0.120584,-1.99721 0.192523,-0.515533 0.584541,-1.00148 1.13834,-1.14068 0.485942,-0.133934 0.993949,0.0411983 1.40855,0.296905 0.528923,-0.304432 0.869284,-0.823451 1.26653,-1.26823 -0.491765,-0.52714 -0.856489,-1.16096 -1.15399,-1.81391 -0.676207,-1.52687 -0.969586,-3.19758 -1.04152,-4.85784 -0.0562515,-1.72058 0.125259,-3.45911 0.634414,-5.1078 0.393761,-1.25259 0.971369,-2.49238 1.93398,-3.41094 -0.551503,-0.651844 -1.15169,-1.259 -1.7577,-1.85975 -0.392572,0.22152 -0.879703,0.306769 -1.31058,0.148433 -0.560178,-0.193117 -0.941738,-0.71384 -1.12614,-1.25722 -0.195415,-0.578757 -0.211102,-1.26301 0.133934,-1.79015 0.253449,-0.40303 0.73127,-0.606566 1.19344,-0.630334 -0.0011488,-0.441892 0.157148,-0.904065 0.501629,-1.19578zm0.506818 0.683694c-0.344481,0.334023 -0.375222,0.859421 -0.320119,1.30828 -0.463917,-0.0846942 -1.06466,0.0034464 -1.29489,0.470849 -0.266204,0.679653 0.26153,1.50833 0.962654,1.63474 0.374033,0.0638178 0.725407,-0.119435 1.01249,-0.340401 0.705165,0.717366 1.43699,1.40918 2.11026,2.15725 0.334578,-0.410002 0.715028,-0.778807 1.10237,-1.13834 -0.795048,-0.655291 -1.48801,-1.42423 -2.1584,-2.20363 0.271988,-0.298054 0.516722,-0.680802 0.467442,-1.10297 -0.0841,-0.574677 -0.640238,-1.01712 -1.21202,-1.02061 -0.242991,-0.0191334 -0.498143,0.0568061 -0.669789,0.23483zm21.6599 -0.215142c-0.363575,0.149621 -0.60716,0.503372 -0.701679,0.876256 -0.122921,0.439554 -0.00752661,0.908106 0.219223,1.29375 -0.733568,0.63382 -1.37147,1.36683 -2.02735,2.07778 -0.00637782,0.0185392 -0.0191334,0.0562515 -0.0249171,0.0747908 0.409408,0.256895 0.750364,0.608903 1.04263,0.991057 0.715028,-0.755038 1.43992,-1.5054 2.25117,-2.15895 0.277217,0.307324 0.682545,0.582203 1.11632,0.47897 0.498737,-0.131637 0.821708,-0.625699 0.890715,-1.11628 0.0452389,-0.347373 -0.0811686,-0.738797 -0.396653,-0.921495 -0.343847,-0.200049 -0.762565,-0.201198 -1.14238,-0.121773 0.0516167,-0.235425 0.122367,-0.468552 0.15077,-0.708611 -0.0116068,-0.266204 -0.197752,-0.483644 -0.381005,-0.659371 -0.294013,-0.17743 -0.673236,-0.244694 -0.996841,-0.106125zm-11.7117 2.67567c-2.52344,0.324357 -4.57658,1.23092 -6.36613,3.20337 -1.22244,1.36798 -2.1149,3.01203 -2.69136,4.74882 -0.0823174,0.240654 -0.156554,0.483644 -0.246437,0.721406 0.378668,-0.0434959 0.692964,-0.28823 1.067,-0.350265 0.171686,-0.401287 0.321862,-0.81129 0.506858,-1.20679 0.766051,-1.6475 1.83364,-3.1935 3.29095,-4.3011 1.39175,-1.08153 3.10651,-1.72173 4.85898,-1.87425 1.37436,-0.112503 2.78295,-0.0214707 4.09816,0.41638 1.65273,0.520723 3.12972,1.54949 4.23907,2.87572 0.956276,1.14123 1.6736,2.47384 2.17289,3.87375 0.363615,0.0440505 0.673275,0.255152 1.02818,0.330537 0.0440505,-0.0226195 0.0886952,-0.0446447 0.133934,-0.0667096 -0.0539539,-0.288784 -0.40921,-1.12677 -0.544531,-1.419 -0.449418,-1.0357 -1.01483,-2.02387 -1.69907,-2.9233 -1.12503,-1.50655 -2.65888,-2.72206 -4.41654,-3.40342 -1.72173,-0.665749 -3.60644,-0.808992 -5.43196,-0.625145zm-1.81914 3.50376c-1.2926,0.566001 -2.45126,1.56863 -2.96156,2.91054 2.12825,-0.389126 4.29591,-0.530032 6.45665,-0.537598 1.93917,-0.0051894 3.88243,0.0922208 5.80132,0.381599 -0.559584,-1.41556 -1.82203,-2.46053 -3.23411,-2.96446 -1.94963,-0.697638 -4.16313,-0.609497 -6.06229,0.209913zm-1.66374 3.19061c-0.464511,0.0632236 -0.951602,0.0295915 -1.3912,0.215737 -0.331686,0.119475 -0.501035,0.462174 -0.517831,0.797346 2.93312,-0.469106 5.91382,-0.636712 8.88176,-0.538113 1.56459,0.068413 3.13725,0.169309 4.67633,0.474929 0.00408022,-0.235464 -0.0637782,-0.484793 -0.248774,-0.641941 -0.356643,-0.316078 -0.859975,-0.346779 -1.31058,-0.401327 -3.3495,-0.392572 -6.74947,-0.374033 -10.0897,0.0933696zm4.07031 0.905808c-0.479564,0.0516167 -0.966695,0.0214707 -1.44741,0.0765734 -0.644278,0.0289973 -1.28507,0.0980044 -1.92701,0.153068 -2.47039,0.292865 -4.96337,0.742283 -7.2372,1.79363 1.17027,0.25226 2.36371,0.364209 3.55133,0.496994 0.082357,-0.226749 0.187294,-0.451161 0.354305,-0.628631 0.384491,-0.422718 0.940629,-0.628037 1.48049,-0.767794 2.8924,-0.705323 8.57911,-0.465343 11.5482,-0.269651 0.455796,0.0545085 0.919752,0.0864372 1.36105,0.222114 0.162377,0.0551027 0.336321,0.114246 0.448824,0.25226 0.22152,0.236019 0.258638,0.573528 0.407665,0.850151 0.0452389,0.073642 0.103828,0.178579 0.209359,0.149582 0.894796,-0.109572 1.80235,-0.131042 2.68379,-0.331092 0.280663,-0.0701956 0.568299,-0.139757 0.819965,-0.286487 -1.66025,-0.65644 -3.41273,-1.04731 -5.17562,-1.30595 -0.634969,-0.0945184 -1.27406,-0.158297 -1.91136,-0.233127 -1.71825,-0.144947 -3.44228,-0.213399 -5.16635,-0.171646zm-0.81533 1.17835c-1.85048,0.0991929 -3.72762,0.291716 -5.48005,0.928428 0.0336321,1.10645 0.189037,2.21928 0.596702,3.25443 0.704531,1.52374 1.34144,2.70808 3.13321,3.63599 1.25663,0.672087 2.72265,0.899985 4.13294,0.75793 1.09195,-0.0933696 2.16537,-0.439 3.09435,-1.02295 1.01891,-0.625739 1.83309,-1.55532 2.37473,-2.61653 0.70053,-1.36101 0.946373,-2.93316 0.801981,-4.45017 -2.86007,-0.435514 -5.76305,-0.611201 -8.65386,-0.48713zm12.1141 1.33439c-0.156554,0.00812082 -0.312553,0.0191334 -0.467363,0.0370785 -0.0150928,0.0272543 -0.0458331,0.080614 -0.0614806,0.107868 0.0892894,0.618173 0.0312949,1.25029 -0.00174301,1.8725 -0.111354,1.47122 -0.495251,2.93316 -1.21258,4.2275 -0.524209,0.940589 -1.19748,1.80524 -2.01979,2.50399 -0.904065,0.795088 -1.9444,1.42657 -3.04448,1.91022 -0.040406,0.559822 -0.629859,1.07092 -0.774172,1.3622 1.30012,-0.455836 2.56198,-1.04905 3.67426,-1.86902 1.72348,-1.2474 3.05434,-3.0358 3.71945,-5.05907 0.321862,-0.9354 0.499331,-1.91426 0.606011,-2.89545 0.0655212,-0.764902 0.0846546,-1.53095 0.0672642,-2.29875 -0.170498,-0.00926962 -0.317782,0.0957068 -0.485387,0.100936zm-21.4239 0.125259c-0.0324437,1.31811 0.0614806,2.64434 0.371141,3.92941 0.278366,1.12848 0.710394,2.22332 1.33031,3.2086 0.716771,1.16908 1.67824,2.18331 2.79396,2.97955 1.27287,0.908106 2.74642,1.50944 4.26343,1.86783 -0.492914,-0.283555 -0.772983,-0.795603 -1.16964,-1.18299 -0.581649,-0.480198 -1.27929,-0.784036 -1.93398,-1.14761 -0.543937,-0.300985 -1.02469,-0.70053 -1.47759,-1.12269 -1.28218,-1.18243 -2.25814,-2.70118 -2.76964,-4.37074 -0.400099,-1.28852 -0.497549,-2.65072 -0.419272,-3.99204 -0.333429,-0.0330379 -0.669195,-0.0608864 -0.98872,-0.169309zm13.0994 7.4523c0.0696014,0.249923 0.0968556,0.511453 0.207616,0.74866 0.219223,-0.113652 0.45231,-0.192523 0.692409,-0.248774 -0.0765338,-0.23895 -0.111354,-0.5805 -0.393167,-0.666303 -0.167606,0.0608864 -0.335766,0.117692 -0.506858,0.166417zm-4.62819 -0.0133498c-0.202387,0.100896 -0.27484,0.335212 -0.305026,0.542788 0.219777,0.0348205 0.410002,0.16412 0.630928,0.194266 0.0255509,-0.160634 0.0528051,-0.321268 0.116583,-0.471443 0.000554593,-0.0516167 0.0022976,-0.155405 0.0028918,-0.207022 -0.139163,-0.0533597 -0.298648,-0.143243 -0.445378,-0.0585888zm0.869879 0.20413c0.0481307,0.237762 -0.19486,0.471483 -0.0591433,0.691815 0.274286,0.0232137 0.521317,0.189631 0.804318,0.144392 0.0690072,-0.240654 0.0858034,-0.490577 0.0776826,-0.739945 -0.283001,0.0440901 -0.544531,-0.0881406 -0.822857,-0.0962614zm2.56487 0.0910324c-0.0104184,0.255192 0.0690468,0.499331 0.111948,0.748106 0.283001,0.0388215 0.543937,-0.110205 0.825788,-0.0898836 -0.00697202,-0.267947 -0.0812082,-0.525992 -0.184442,-0.770725 -0.249923,0.0481703 -0.494063,0.142095 -0.753295,0.112503zm-1.34128 0.0980044c0.0359297,0.24822 0.0620351,0.502223 -0.0220649,0.745174 0.341589,-0.0028918 0.683139,-0.0034464 1.02469,0.00174301 -0.0730478,-0.255707 -0.0962614,-0.519574 -0.0823174,-0.78459 -0.307363,0.0022976 -0.614132,0.0185392 -0.920307,0.0376727zm-2.80846 1.54197c0.201792,0.138014 0.42565,0.239505 0.656994,0.316039 0.146729,-0.345036 0.209359,-0.719069 0.23895,-1.09076 -0.26561,-0.0324833 -0.48309,-0.206467 -0.741134,-0.263273 -0.0579945,0.345036 -0.064927,0.698193 -0.154811,1.038zm5.65578 -0.702827c0.063897,0.344996 0.195454,0.651844 0.176875,0.995098 0.236573,-0.0150928 0.425056,-0.201198 0.668601,-0.189591 -0.0261055,-0.357237 0.0463877,-0.727229 -0.0776826,-1.07167 -0.285338,-0.0365635 -0.510344,0.183253 -0.767794,0.266165zm-4.32317 0.0817628c-0.0568457,0.350265 -0.129894,0.698787 -0.251112,1.03277 0.352602,0.127041 0.723149,0.190225 1.09255,0.244179 0.096816,-0.334063 0.0400099,-0.689478 0.1415,-1.0218 -0.318376,-0.118287 -0.650101,-0.191929 -0.982936,-0.255152zm3.01144 0.162971c-0.0417529,0.370547 0.0133102,0.74458 0.0875464,1.10756 0.350859,0.0319287 0.66052,-0.161743 1.00207,-0.198306 -0.0284031,-0.343887 -0.151364,-0.669789 -0.191929,-1.01134 -0.307957,-0.0272543 -0.588621,0.15485 -0.897687,0.102085zm8.21486 0.0382669c-0.196009,0.440703 -0.546828,0.790968 -0.91797,1.08847 0.342144,0.238356 0.659331,0.510899 0.963209,0.796197 0.233127,0.233721 0.487685,0.483644 0.557841,0.819411 -0.292825,0.271948 -0.479564,0.669195 -0.449973,1.07337 0.0417529,0.48713 0.336321,0.985273 0.81533,1.14995 0.3549,0.129339 0.756781,-0.00926962 1.02988,-0.249369 0.251706,-0.400693 0.283001,-0.906957 0.230235,-1.36679 0.285298,0.0150532 0.569448,0.125813 0.855935,0.0544689 0.265016,-0.086358 0.514385,-0.271948 0.588581,-0.552612 0.0800594,-0.330537 0.0498737,-0.698787 -0.130448,-0.9928 -0.190225,-0.342699 -0.501629,-0.675018 -0.914523,-0.706313 -0.369953,0.0272543 -0.659331,0.282961 -0.982936,0.433771 -0.520168,-0.544531 -1.06585,-1.06644 -1.64516,-1.54775zm-9.95807 1.16849c0.460431,0.0051894 0.920307,-0.0371181 1.38074,-0.00930923 -0.0881406,-0.367021 -0.0162416,-0.760822 -0.159445,-1.11568 -0.356088,0.0115672 -0.712137,0.00637782 -1.06819,0.0040406 -0.0991929,0.365912 -0.078871,0.750403 -0.153107,1.12095zm-10.3773 0.585095c-0.235425,-0.272543 -0.561327,-0.490577 -0.929577,-0.513751 -0.672681,-0.0295915 -1.29493,0.592661 -1.24272,1.26883 0.0608864,0.436068 0.397247,0.81125 0.806615,0.959723 0.271394,0.0910324 0.522506,-0.0898836 0.787522,-0.116583 -0.0127556,0.432028 0.0116068,0.877405 0.179213,1.28158 0.29227,0.285893 0.775321,0.390275 1.14531,0.19486 0.456905,-0.239505 0.70976,-0.773578 0.677276,-1.27925 -0.0127556,-0.302174 -0.172201,-0.566556 -0.34559,-0.803763 0.579312,-0.485387 1.07975,-1.05484 1.58602,-1.61327 -0.419272,-0.271433 -0.752107,-0.651805 -1.06066,-1.03919 -0.516643,0.570597 -1.01019,1.16674 -1.60341,1.66081zm7.94232 -0.723664c0.47283,2.87398 5.84727,3.00815 6.2583,0.0463877 -0.857678,0.295756 -1.76055,0.463323 -2.66696,0.488834 -1.21198,0.0527655 -2.46691,-0.0400099 -3.59134,-0.535222zm6.17943 -10.0648c0.553246,-0.0661154 1.1343,0.0747908 1.58257,0.407665 0.611201,0.477267 0.920861,1.26768 0.9087,2.0308 0.0127556,0.75793 -0.291122,1.55936 -0.91797,2.01515 -0.34563,0.266204 -0.778807,0.388532 -1.20854,0.422203 -1.26419,0.0858034 -2.52661,-0.921495 -2.64434,-2.19959 -0.0637782,-0.761971 0.184996,-1.59762 0.795603,-2.09113 0.415231,-0.350225 0.951047,-0.524209 1.48397,-0.585095zm-6.69322 0.0672642c0.676761,-0.106719 1.4196,0.06667 1.916,0.556138 0.905214,0.893607 0.989908,2.47558 0.20413,3.47068 -0.334023,0.42565 -0.838544,0.708651 -1.37206,0.786373 -0.630334,0.0980044 -1.31462,-0.00522902 -1.83075,-0.39899 -1.11746,-0.818222 -1.31866,-2.6113 -0.420421,-3.66205 0.375776,-0.439594 0.935954,-0.684882 1.5031,-0.752146zm3.3188 4.43682c0.327645,-0.109017 0.749809,-0.121218 0.995692,0.161783 0.296905,0.375776 0.234276,0.940629 -0.0434959,1.31003 -0.255746,0.346185 -0.779995,0.427353 -1.1488,0.229047 -0.320119,-0.289973 -0.527695,-0.765457 -0.39899,-1.19404 0.0846942,-0.268462 0.340995,-0.426799 0.595593,-0.506818z"/>
 </g>
</svg>
