<?xml version="1.0" encoding="UTF-8"?>
<!DOCTYPE svg PUBLIC "-//W3C//DTD SVG 1.1//EN" "http://www.w3.org/Graphics/SVG/1.1/DTD/svg11.dtd">
<!-- Creator: CorelDRAW -->
<svg xmlns="http://www.w3.org/2000/svg" xml:space="preserve" width="48.165mm" height="65.7494mm" style="shape-rendering:geometricPrecision; text-rendering:geometricPrecision; image-rendering:optimizeQuality; fill-rule:evenodd; clip-rule:evenodd"
viewBox="0 0 44.7136 61.038"
 xmlns:xlink="http://www.w3.org/1999/xlink">
 <defs>
  <style type="text/css">
   <!-- <![CDATA[ -->
    .fil0 {fill:#060809;fill-rule:nonzero}
   <!-- ]]> -->
  </style>
 </defs>
 <g id="Layer_x0020_1">
  <metadata id="CorelCorpID_0Corel-Layer"/>
  <path class="fil0" d="M17.3312 5.41159c0.933912,0.0335132 9.39028,0.171279 10.278,-0.204699 0.536768,-0.227351 1.83143,-4.17949 2.80016,-5.00674 2.0055,-1.71279 1.44775,8.10703 1.9588,8.91459 0.451546,0.634708 0.863823,1.29578 1.3085,1.93634 0.831516,1.06165 1.42111,2.28595 2.2037,3.38093 0.0538439,0.123377 0.18409,0.0949694 0.285929,0.0577429 0.873663,-0.341816 1.7502,-0.673791 2.62489,-1.01366 0.212498,-0.066655 0.459344,-0.0255294 0.575851,0.182141 0.031378,0.206649 -0.176292,0.379042 -0.360382,0.425088 -0.472062,0.113629 -0.898171,0.362425 -1.37218,0.470113 -0.449596,0.169422 -0.959813,0.246846 -1.32029,0.587641 0.277203,0.602309 0.661165,1.14687 0.961855,1.73749 0.360382,0.00287786 0.723736,0.0117899 1.08124,-0.0411256 0.518108,-0.11168 1.0519,-0.0284073 1.57586,-0.0871713 0.546515,-0.10973 1.10965,-0.0254366 1.65811,-0.131268 0.511331,-0.000928342 1.04708,-0.0910704 1.53966,0.0832723 0.183162,0.0646126 0.255665,0.247775 0.275254,0.426016 -0.387861,0.172393 -0.818798,0.10286 -1.22328,0.203771 -1.00001,0.0420539 -2.00485,0.00482738 -3.00588,0.0508732 -0.478932,0.145007 -0.981351,0.0675833 -1.473,0.0920916 0.109637,0.467142 0.411348,0.853054 0.612149,1.28204 0.254644,0.540667 0.576872,1.04606 0.928435,1.52787 0.59451,0.0411256 1.17723,0.174343 1.77081,0.228187 1.20954,0.334946 2.49362,0.361404 3.67865,0.784542 0.00492021,0.0989613 0.0146678,0.298741 0.019588,0.39863 -0.527855,0.0783521 -1.0235,-0.143986 -1.5455,-0.154755 -0.51031,-0.20275 -1.06657,-0.160603 -1.5857,-0.331047 -0.509289,-0.0469741 -1.0234,-0.0930199 -1.51505,-0.243876 -0.191053,-0.0656338 -0.393803,-0.0695328 -0.593582,-0.0656338 0.180191,0.562204 0.578821,1.02452 0.726706,1.60232 0.362425,0.746294 0.653275,1.52397 1.02248,2.26738 0.683631,1.69144 1.31639,3.40637 1.81491,5.16344 0.29085,0.752143 0.459344,1.54448 0.60825,2.33589 0.336895,1.12924 0.400487,2.31241 0.653182,3.45631 0.0107688,0.523028 -0.015689,1.04698 0.0225587,1.56899 0.0989613,0.680753 0.0372265,1.37125 0.0529155,2.05684 0.0215375,1.16349 -0.213519,2.30749 -0.521079,3.42493 -0.155683,1.07836 -0.262442,2.17334 -0.543544,3.23017 -0.229208,0.601287 -0.525999,1.22625 -1.07734,1.59545 -0.178242,0.0205164 -0.357505,0.00287786 -0.534818,0.019588 -0.238955,0.136095 -0.476982,0.281102 -0.688459,0.457394 -0.129318,0.348685 -0.115579,0.738403 -0.216489,1.09888 -0.118456,0.866793 -0.387861,1.70314 -0.593489,2.55136 -0.178242,0.736547 -0.504461,1.42111 -0.782593,2.1234 -0.514209,1.17528 -1.14298,2.30554 -1.94413,3.31233 -0.424067,0.455445 -0.857974,0.902999 -1.32419,1.31435 -0.456373,0.332068 -0.902999,0.677783 -1.37701,0.984321 0.00389904,0.0479953 0.0107688,0.145007 0.0146678,0.19291 0.255665,0.149927 0.512259,0.298741 0.773773,0.438827 0.00584856,0.149834 0.0127183,0.299669 0.0205164,0.450525 -0.573901,0.20767 -1.18995,0.246846 -1.79226,0.30561 -1.04114,0.193931 -2.11263,0.00974759 -3.15961,0.167473 -0.489701,0.0293356 -0.981351,0.0166173 -1.47207,0.00779808 -0.973553,-0.119478 -1.95778,-0.0538439 -2.93625,-0.0764026 -1.15764,-0.035277 -2.36328,0.143058 -3.46318,-0.312387 -0.138137,-0.133217 -0.213519,-0.39176 -0.453495,-0.304589 -0.215468,0.169422 -0.373101,0.458323 -0.68261,0.455352 -0.492671,0.0372265 -0.971603,0.191053 -1.46919,0.168494 -2.7776,-0.035277 -5.55613,0.031378 -8.33373,-0.0245082 -0.885453,-0.193931 -1.85409,0.0264578 -2.68458,-0.407357 0.00584856,-0.108802 0,-0.21946 0.0284073,-0.323249 0.267363,-0.264485 0.629695,-0.40355 0.89715,-0.667014 -0.599431,-0.520986 -1.34183,-0.864751 -1.85798,-1.47885 -0.558305,-0.49852 -1.01561,-1.09108 -1.47012,-1.68169 -0.69635,-1.15671 -1.38193,-2.33784 -1.78446,-3.63362 -0.239976,-0.526927 -0.335967,-1.0999 -0.507339,-1.64929 -0.0910704,-0.351656 -0.238027,-0.686602 -0.253623,-1.05283 -0.20767,-0.612149 -0.228279,-1.26542 -0.390832,-1.88537 -0.315358,-0.364374 -0.768853,-0.653275 -1.26635,-0.620968 -0.49852,-0.30264 -0.779622,-0.856024 -0.976523,-1.3849 -0.240905,-0.672863 -0.329097,-1.3888 -0.398537,-2.09499 -0.22633,-1.04011 -0.454516,-2.08023 -0.623939,-3.13111 -0.0499448,-0.463336 0.0215375,-0.935398 -0.0989613,-1.38982 -0.0362054,-0.742395 -0.0351842,-1.48971 0.00399187,-2.23109 0.120406,-0.549486 0.0596924,-1.11457 0.0842007,-1.67185 0.0949694,-0.641485 0.257615,-1.27517 0.304589,-1.92362 0.265413,-1.24973 0.570095,-2.49158 0.889259,-3.72859 0.372265,-1.02248 0.572973,-2.10669 1.04606,-3.09008 0.285001,-0.807008 0.625796,-1.5935 0.91386,-2.39949 0.360382,-0.677783 0.608157,-1.40449 0.972531,-2.08032 0.232086,-0.494621 0.452474,-0.99509 0.663022,-1.49844 -0.623939,-0.066655 -1.19199,0.287879 -1.81491,0.272283 -0.374029,-0.0274789 -0.704148,0.196809 -1.07437,0.193838 -0.79921,0.0587641 -1.57874,0.469184 -2.38779,0.280174 -0.154755,-0.364374 0.309509,-0.444676 0.557284,-0.530826 1.62581,-0.31935 3.2634,-0.595532 4.90193,-0.853054 0.239048,-0.172393 0.413298,-0.420168 0.544566,-0.680753 0.292892,-0.563132 0.546515,-1.14585 0.872642,-1.69042 0.0920916,-0.126347 0.0813228,-0.286022 0.0998896,-0.431958 -0.300597,-0.00389904 -0.611128,0.0411256 -0.903927,-0.0529155 -1.52991,-0.27906 -3.10475,0.0382477 -4.63456,-0.253623 0.00389904,-0.0940411 0.0107688,-0.282123 0.0146678,-0.375143 0.891301,-0.126347 1.80507,-0.181212 2.69925,-0.0372265 0.654296,0.0440963 1.31435,-0.0215375 1.96465,0.0813228 0.407449,0.0616419 0.828638,-0.00584856 1.22727,0.110658 0.198758,-0.177221 0.363353,-0.389811 0.472062,-0.632665 0.198851,-0.425088 0.461293,-0.821769 0.611128,-1.26839 -0.482831,-0.225216 -0.99509,-0.37505 -1.49649,-0.553385 -0.389811,-0.152712 -0.780643,-0.304589 -1.18902,-0.39566 -0.229208,-0.0499448 -0.404479,-0.40058 -0.181212,-0.552364 0.177313,-0.198851 0.428987,-0.0206092 0.629787,0.0362054 0.772752,0.31443 1.58468,0.530826 2.32903,0.912839 0.170444,0.0998896 0.364374,-0.00492021 0.438735,-0.172393 1.1401,-1.81389 2.29477,-3.61989 3.55239,-5.35542 0.019588,-0.0286858 -0.35277,-8.38414 1.38453,-8.84098 1.7373,-0.456744 2.4434,5.25804 3.40572,5.29257zm-3.33191 6.10172c-0.991191,0.20275 -1.76784,1.16358 -1.74333,2.17919 -0.0832723,0.644455 0.29577,1.23312 0.739425,1.66405 0.464264,0.494621 1.19877,0.602309 1.84424,0.523028 0.747316,-0.189011 1.44459,-0.722807 1.66006,-1.48776 0.193931,-0.536675 0.0421467,-1.10872 -0.0685117,-1.64539 -0.443748,-0.869764 -1.45156,-1.44264 -2.43189,-1.23312zm14.4159 3.1831c0.240905,0.578821 0.79429,0.954893 1.37413,1.14103 1.11058,0.322228 2.53586,-0.757342 2.6649,-1.56119 0.12904,-0.803852 0.130339,-0.823161 -0.0234871,-1.36429 -0.863823,-3.03865 -5.53998,-0.837086 -4.01554,1.78446zm-8.11251 -0.710089c-0.0685117,0.0802088 1.5235,0.75075 2.04077,0.753907 0.517272,0.00315636 2.44321,-0.708882 2.16285,-0.846927 -0.347757,-0.171186 -4.07719,-0.054865 -4.20363,0.0930199zm1.11949 4.32023c0.153826,0.591447 1.30748,-0.24991 1.27712,-0.419147 -0.030264,-0.16933 -1.43095,-0.172208 -1.27712,0.419147zm-5.08899 5.09883c-5.06912,1.46697 -9.81239,7.09959 -11.1888,12.4336 -1.13369,3.36793 -0.330304,7.56887 -0.0234871,9.5493 1.20155,7.75519 9.9729,13.2611 17.0887,13.5903 3.42725,0.158654 6.65445,-1.02842 9.07325,-2.43671 0.487844,-0.325198 0.984321,-0.638607 1.47606,-0.956935 0.646405,-0.599431 1.42111,-1.04791 2.02444,-1.69432 0.319257,-0.331047 0.655224,-0.647426 0.925464,-1.02062 3.81382,-4.6405 4.74411,-10.4517 4.47396,-14.3023 -0.270055,-3.85058 -0.431029,-3.26786 -1.76097,-5.97147 -1.32994,-2.70361 -3.94991,-6.17236 -7.95376,-8.28583 -4.00394,-2.11346 -9.06582,-2.37191 -14.1348,-0.904948zm13.7862 -10.9557c1.52944,-0.466678 1.6518,1.30479 1.19979,1.66108 -2.00225,1.57837 -2.72923,-1.19441 -1.19979,-1.66108zm-15.8871 0.153826c0.366324,-0.130339 0.737568,0.08123 1.01468,0.309509 0.367345,0.329005 0.254644,0.876541 0.22438,1.31333 -0.259565,0.284073 -0.591633,0.587641 -1.00298,0.579843 -0.626817,0.0234871 -1.15374,-0.59646 -1.11457,-1.20471 0.0626631,-0.472062 0.408471,-0.884432 0.87849,-0.997968zm7.38775 12.4895c0.319257,-0.0323991 0.647426,-0.0401972 0.964733,0.015689 0.526927,0.248703 0.884432,0.725685 1.28789,1.12821 0.283052,0.276182 0.482831,0.62004 0.629787,0.985343 0.0979401,0.392689 -0.387861,0.539645 -0.656245,0.692451 -0.604258,0.208599 -1.01756,-0.442726 -1.55915,-0.559326 -0.199872,0.00102118 -0.414319,-0.0351842 -0.605279,0.035277 -0.431958,0.29085 -0.790391,0.683631 -1.25271,0.930478 -0.315358,0.0284073 -0.705169,0.105738 -0.927507,-0.181212 -0.323156,-0.237006 -0.213519,-0.707118 -0.0323063,-1.00001 0.289921,-0.605279 0.808029,-1.04104 1.27517,-1.50438 0.267363,-0.215468 0.562204,-0.402529 0.875612,-0.542523zm8.64723 1.09396c0.278131,-0.163574 0.619947,-0.0949694 0.924536,-0.0744531 0.974574,0.378114 1.50735,1.33403 2.09694,2.1312 0.0529155,0.113629 0.019588,0.244897 0.0293356,0.367345 -0.344694,0.248703 -0.757992,0.531754 -1.20462,0.397609 -0.424067,-0.180191 -0.781571,-0.48673 -1.20471,-0.668963 -0.475961,0.039176 -0.853982,0.392782 -1.17036,0.724757 -0.230136,0.254644 -0.571952,0.343765 -0.887402,0.442726 -0.516066,0.0440963 -0.962691,-0.579843 -0.760962,-1.05775 0.523028,-0.917759 1.25855,-1.72867 2.17724,-2.26246zm-16.8498 0.31248c0.245825,-0.0813228 0.471134,0.0792804 0.688459,0.169422 0.644548,0.287972 1.15477,0.825575 1.45843,1.45926 0.163481,0.226237 0.139066,0.511331 0.124305,0.775723 -0.185019,0.259565 -0.490629,0.483852 -0.825575,0.431958 -0.517087,-0.0686045 -0.911818,-0.59154 -1.46427,-0.49852 -0.318236,0.0919987 -0.619947,0.242854 -0.888238,0.437806 -0.296791,0.267363 -0.447647,0.688459 -0.814899,0.87849 -0.320278,0.0568146 -0.680661,0.090142 -0.9833,-0.0577429 -0.294842,-0.231157 -0.253716,-0.643527 -0.176385,-0.966683 0.21454,-0.605279 0.759106,-0.986271 1.17435,-1.44561 0.475033,-0.511238 1.0235,-0.985343 1.70713,-1.1841zm9.96353 5.89989c0.473083,-0.509289 1.06267,-0.98822 1.76292,-1.11355 0.784542,0.108709 1.32521,0.783521 1.80804,1.35157 0.255573,0.382941 0.686602,0.727728 0.609178,1.23702 -0.268384,0.20275 -0.547536,0.4055 -0.867722,0.519036 -0.652346,-0.111587 -1.12441,-0.852033 -1.8423,-0.67769 -0.537696,0.170351 -0.823718,0.716866 -1.30757,0.969561 -0.294749,0.0206092 -0.654203,0.130339 -0.895108,-0.0969189 -0.186133,-0.127369 -0.277203,-0.338845 -0.385912,-0.527855 0.198851,-0.651325 0.635636,-1.19496 1.11847,-1.66118zm9.6854 -1.04299c1.0001,-0.431865 2.42149,1.52694 2.81195,2.24083 0.0362054,0.272283 -0.236077,0.430008 -0.433907,0.554313 -0.236077,0.11168 -0.513188,0.351656 -0.773773,0.163667 -0.492671,-0.210641 -0.897057,-0.751215 -1.47792,-0.671934 -0.446626,0.242854 -0.808958,0.610199 -1.20657,0.922587 -0.235149,0.204699 -0.572045,0.156704 -0.858995,0.135167 -0.260493,-0.129225 -0.620968,-0.373194 -0.522007,-0.712967 0.110658,-0.487751 0.40058,-0.90894 0.726706,-1.27916 0.474012,-0.566103 1.06657,-1.03622 1.73451,-1.3525zm-17.5608 0.799117c0.356483,-0.230136 0.740353,-0.546515 1.19292,-0.47986 0.607229,0.196809 1.09303,0.634615 1.5132,1.09888 0.325105,0.465285 0.837365,0.905041 0.801159,1.51905 -0.19588,0.166545 -0.424067,0.294842 -0.658195,0.39863 -0.679732,0.158654 -1.15179,-0.468163 -1.72477,-0.704148 -0.717887,0.159582 -1.15569,0.808029 -1.81779,1.07539 -0.471041,0.159582 -0.924536,-0.174343 -1.07149,-0.61317 0.245918,-0.981351 1.06175,-1.63463 1.76496,-2.29477zm-6.70607 0.538717c0.413298,-0.283052 0.819819,-0.685581 1.36039,-0.656245 0.382013,-0.0205164 0.723829,0.193002 0.986271,0.452567 0.456373,0.436785 0.945145,0.868743 1.22625,1.44654 0.150856,0.220388 0.10481,0.494621 0.10481,0.746294 -0.353606,0.242947 -0.79921,0.439756 -1.22235,0.273304 -0.333925,-0.218439 -0.645384,-0.473083 -1.00781,-0.643527 -0.249724,0.0911632 -0.499448,0.184183 -0.736547,0.303661 -0.334946,0.172393 -0.548372,0.49852 -0.841264,0.725685 -0.313408,0.0940411 -0.652253,0.0235799 -0.975502,0.035277 -0.185111,-0.259472 -0.416269,-0.561183 -0.29577,-0.8991 0.322228,-0.697278 0.89223,-1.22718 1.40152,-1.78446z"/>
 </g>
</svg>
